<mxfile host="app.diagrams.net" agent="Mozilla/5.0 (Windows NT 10.0; Win64; x64) AppleWebKit/537.36 (KHTML, like Gecko) Chrome/132.0.0.0 Safari/537.36 Edg/132.0.0.0" version="26.0.6">
  <diagram name="Page-1" id="DN_4q7IsD7YObWn_SUVU">
    <mxGraphModel dx="1235" dy="560" grid="1" gridSize="10" guides="1" tooltips="1" connect="1" arrows="1" fold="1" page="1" pageScale="1" pageWidth="850" pageHeight="1100" math="0" shadow="0">
      <root>
        <mxCell id="0" />
        <mxCell id="1" parent="0" />
        <mxCell id="PDLHa-FzQipxZmoy9RNo-1" value="&lt;p style=&quot;margin:0px;margin-top:4px;text-align:center;&quot;&gt;&lt;b&gt;Hệ thống&lt;/b&gt;&lt;/p&gt;&lt;hr size=&quot;1&quot; style=&quot;border-style:solid;&quot;&gt;&lt;div style=&quot;height:2px;&quot;&gt;&lt;/div&gt;" style="verticalAlign=top;align=left;overflow=fill;html=1;whiteSpace=wrap;" vertex="1" parent="1">
          <mxGeometry x="260" width="380" height="440" as="geometry" />
        </mxCell>
        <mxCell id="PDLHa-FzQipxZmoy9RNo-2" value="&lt;p style=&quot;margin:0px;margin-top:4px;text-align:center;&quot;&gt;&lt;b&gt;Người dùng&lt;/b&gt;&lt;/p&gt;&lt;hr size=&quot;1&quot; style=&quot;border-style:solid;&quot;&gt;&lt;div style=&quot;height:2px;&quot;&gt;&lt;/div&gt;" style="verticalAlign=top;align=left;overflow=fill;html=1;whiteSpace=wrap;" vertex="1" parent="1">
          <mxGeometry width="260" height="440" as="geometry" />
        </mxCell>
        <mxCell id="PDLHa-FzQipxZmoy9RNo-3" value="" style="ellipse;html=1;shape=startState;fillColor=#000000;strokeColor=#ff0000;" vertex="1" parent="1">
          <mxGeometry x="20" y="45" width="30" height="30" as="geometry" />
        </mxCell>
        <mxCell id="PDLHa-FzQipxZmoy9RNo-4" value="" style="edgeStyle=orthogonalEdgeStyle;rounded=0;orthogonalLoop=1;jettySize=auto;html=1;strokeColor=#FF0500;" edge="1" parent="1" source="PDLHa-FzQipxZmoy9RNo-3" target="PDLHa-FzQipxZmoy9RNo-6">
          <mxGeometry relative="1" as="geometry" />
        </mxCell>
        <mxCell id="PDLHa-FzQipxZmoy9RNo-5" value="" style="edgeStyle=orthogonalEdgeStyle;rounded=0;orthogonalLoop=1;jettySize=auto;html=1;strokeColor=#FF0500;" edge="1" parent="1" source="PDLHa-FzQipxZmoy9RNo-6" target="PDLHa-FzQipxZmoy9RNo-8">
          <mxGeometry relative="1" as="geometry" />
        </mxCell>
        <mxCell id="PDLHa-FzQipxZmoy9RNo-6" value="Cập nhật thông tin nhân viên" style="rounded=1;whiteSpace=wrap;html=1;arcSize=40;fontColor=#000000;fillColor=#ffffc0;strokeColor=#ff0000;" vertex="1" parent="1">
          <mxGeometry x="100" y="40" width="120" height="40" as="geometry" />
        </mxCell>
        <mxCell id="PDLHa-FzQipxZmoy9RNo-7" style="edgeStyle=orthogonalEdgeStyle;rounded=0;orthogonalLoop=1;jettySize=auto;html=1;entryX=0.5;entryY=0;entryDx=0;entryDy=0;strokeColor=#FF0500;" edge="1" parent="1" source="PDLHa-FzQipxZmoy9RNo-8" target="PDLHa-FzQipxZmoy9RNo-10">
          <mxGeometry relative="1" as="geometry">
            <Array as="points">
              <mxPoint x="360" y="100" />
              <mxPoint x="160" y="100" />
            </Array>
          </mxGeometry>
        </mxCell>
        <mxCell id="PDLHa-FzQipxZmoy9RNo-8" value="Hiển thị danh sách nhân viên" style="rounded=1;whiteSpace=wrap;html=1;arcSize=40;fontColor=#000000;fillColor=#ffffc0;strokeColor=#ff0000;" vertex="1" parent="1">
          <mxGeometry x="300" y="40" width="120" height="40" as="geometry" />
        </mxCell>
        <mxCell id="PDLHa-FzQipxZmoy9RNo-24" value="" style="edgeStyle=orthogonalEdgeStyle;rounded=0;orthogonalLoop=1;jettySize=auto;html=1;strokeColor=#FF0500;" edge="1" parent="1" source="PDLHa-FzQipxZmoy9RNo-10" target="PDLHa-FzQipxZmoy9RNo-23">
          <mxGeometry relative="1" as="geometry" />
        </mxCell>
        <mxCell id="PDLHa-FzQipxZmoy9RNo-10" value="Chọn nhân viên" style="rounded=1;whiteSpace=wrap;html=1;arcSize=40;fontColor=#000000;fillColor=#ffffc0;strokeColor=#ff0000;" vertex="1" parent="1">
          <mxGeometry x="100" y="120" width="120" height="40" as="geometry" />
        </mxCell>
        <mxCell id="PDLHa-FzQipxZmoy9RNo-14" value="ID, mã số thuế,&amp;nbsp;&lt;br&gt;TK ngân hàng,&lt;div&gt;username, password, họ tên,&amp;nbsp;&lt;span style=&quot;background-color: transparent; color: light-dark(rgb(0, 0, 0), rgb(255, 255, 255));&quot;&gt;ngày tháng&lt;/span&gt;&lt;/div&gt;&lt;div&gt;&lt;span style=&quot;background-color: transparent; color: light-dark(rgb(0, 0, 0), rgb(255, 255, 255));&quot;&gt;năm sinh,&amp;nbsp;&lt;/span&gt;&lt;span style=&quot;background-color: transparent; color: light-dark(rgb(0, 0, 0), rgb(255, 255, 255));&quot;&gt;giới tính,&amp;nbsp;&lt;/span&gt;&lt;span style=&quot;background-color: transparent; color: light-dark(rgb(0, 0, 0), rgb(255, 255, 255));&quot;&gt;SĐT, Email,&lt;/span&gt;&lt;/div&gt;&lt;div&gt;&lt;div&gt;&lt;div&gt;hồ sơ y tế, phúc lợi&lt;/div&gt;&lt;/div&gt;&lt;/div&gt;" style="whiteSpace=wrap;html=1;shape=mxgraph.basic.document;align=center;" vertex="1" parent="1">
          <mxGeometry x="460" y="120" width="130" height="120" as="geometry" />
        </mxCell>
        <mxCell id="PDLHa-FzQipxZmoy9RNo-37" style="edgeStyle=orthogonalEdgeStyle;rounded=0;orthogonalLoop=1;jettySize=auto;html=1;entryX=0.5;entryY=0;entryDx=0;entryDy=0;strokeColor=#FF0500;" edge="1" parent="1" source="PDLHa-FzQipxZmoy9RNo-22" target="PDLHa-FzQipxZmoy9RNo-26">
          <mxGeometry relative="1" as="geometry" />
        </mxCell>
        <mxCell id="PDLHa-FzQipxZmoy9RNo-22" value="Chỉnh sửa thông tin nhân viên" style="rounded=1;whiteSpace=wrap;html=1;arcSize=40;fontColor=#000000;fillColor=#ffffc0;strokeColor=#ff0000;" vertex="1" parent="1">
          <mxGeometry x="100" y="200" width="120" height="40" as="geometry" />
        </mxCell>
        <mxCell id="PDLHa-FzQipxZmoy9RNo-25" style="edgeStyle=orthogonalEdgeStyle;rounded=0;orthogonalLoop=1;jettySize=auto;html=1;entryX=0.5;entryY=0;entryDx=0;entryDy=0;strokeColor=#FF0500;" edge="1" parent="1" source="PDLHa-FzQipxZmoy9RNo-23" target="PDLHa-FzQipxZmoy9RNo-22">
          <mxGeometry relative="1" as="geometry">
            <mxPoint x="210" y="190" as="targetPoint" />
            <Array as="points">
              <mxPoint x="360" y="180" />
              <mxPoint x="160" y="180" />
            </Array>
          </mxGeometry>
        </mxCell>
        <mxCell id="PDLHa-FzQipxZmoy9RNo-23" value="Hiển thị thông tin nhân viên" style="rounded=1;whiteSpace=wrap;html=1;arcSize=40;fontColor=#000000;fillColor=#ffffc0;strokeColor=#ff0000;" vertex="1" parent="1">
          <mxGeometry x="300" y="120" width="120" height="40" as="geometry" />
        </mxCell>
        <mxCell id="PDLHa-FzQipxZmoy9RNo-29" value="" style="edgeStyle=orthogonalEdgeStyle;rounded=0;orthogonalLoop=1;jettySize=auto;html=1;strokeColor=#FF0500;" edge="1" parent="1" source="PDLHa-FzQipxZmoy9RNo-26" target="PDLHa-FzQipxZmoy9RNo-27">
          <mxGeometry relative="1" as="geometry" />
        </mxCell>
        <mxCell id="PDLHa-FzQipxZmoy9RNo-35" value="" style="edgeStyle=orthogonalEdgeStyle;rounded=0;orthogonalLoop=1;jettySize=auto;html=1;strokeColor=#FF0500;" edge="1" parent="1" source="PDLHa-FzQipxZmoy9RNo-26" target="PDLHa-FzQipxZmoy9RNo-34">
          <mxGeometry relative="1" as="geometry" />
        </mxCell>
        <mxCell id="PDLHa-FzQipxZmoy9RNo-26" value="Xác nhận&lt;br&gt;chỉnh sửa thông tin nhân viên" style="rhombus;whiteSpace=wrap;html=1;fontColor=#000000;fillColor=#ffffc0;strokeColor=#FF0000;" vertex="1" parent="1">
          <mxGeometry x="300" y="240" width="120" height="80" as="geometry" />
        </mxCell>
        <mxCell id="PDLHa-FzQipxZmoy9RNo-31" value="" style="edgeStyle=orthogonalEdgeStyle;rounded=0;orthogonalLoop=1;jettySize=auto;html=1;strokeColor=#FF0500;" edge="1" parent="1" source="PDLHa-FzQipxZmoy9RNo-27" target="PDLHa-FzQipxZmoy9RNo-28">
          <mxGeometry relative="1" as="geometry" />
        </mxCell>
        <mxCell id="PDLHa-FzQipxZmoy9RNo-27" value="Cập nhật thông tin nhân viên vào CSDL" style="rounded=1;whiteSpace=wrap;html=1;arcSize=40;fontColor=#000000;fillColor=#ffffc0;strokeColor=#ff0000;" vertex="1" parent="1">
          <mxGeometry x="300" y="360" width="120" height="40" as="geometry" />
        </mxCell>
        <mxCell id="PDLHa-FzQipxZmoy9RNo-32" style="edgeStyle=orthogonalEdgeStyle;rounded=0;orthogonalLoop=1;jettySize=auto;html=1;entryX=1.023;entryY=0.397;entryDx=0;entryDy=0;entryPerimeter=0;strokeColor=#FF0500;" edge="1" parent="1" source="PDLHa-FzQipxZmoy9RNo-28" target="PDLHa-FzQipxZmoy9RNo-30">
          <mxGeometry relative="1" as="geometry">
            <mxPoint x="620" y="120" as="targetPoint" />
            <Array as="points">
              <mxPoint x="620" y="380" />
              <mxPoint x="620" y="56" />
            </Array>
          </mxGeometry>
        </mxCell>
        <mxCell id="PDLHa-FzQipxZmoy9RNo-36" value="" style="edgeStyle=orthogonalEdgeStyle;rounded=0;orthogonalLoop=1;jettySize=auto;html=1;strokeColor=#FF0500;" edge="1" parent="1" source="PDLHa-FzQipxZmoy9RNo-28" target="PDLHa-FzQipxZmoy9RNo-34">
          <mxGeometry relative="1" as="geometry" />
        </mxCell>
        <mxCell id="PDLHa-FzQipxZmoy9RNo-28" value="Chỉnh sửa&lt;br&gt;thông tin nhân&lt;br&gt;viên khác" style="rhombus;whiteSpace=wrap;html=1;fontColor=#000000;fillColor=#ffffc0;strokeColor=#FF0000;" vertex="1" parent="1">
          <mxGeometry x="460" y="340" width="120" height="80" as="geometry" />
        </mxCell>
        <mxCell id="PDLHa-FzQipxZmoy9RNo-33" value="" style="edgeStyle=orthogonalEdgeStyle;rounded=0;orthogonalLoop=1;jettySize=auto;html=1;" edge="1" parent="1" source="PDLHa-FzQipxZmoy9RNo-30" target="PDLHa-FzQipxZmoy9RNo-8">
          <mxGeometry relative="1" as="geometry" />
        </mxCell>
        <mxCell id="PDLHa-FzQipxZmoy9RNo-30" value="Cập nhật danh sách&lt;br&gt;nhân viên" style="rounded=1;whiteSpace=wrap;html=1;arcSize=40;fontColor=#000000;fillColor=#ffffc0;strokeColor=#ff0000;" vertex="1" parent="1">
          <mxGeometry x="460" y="40" width="120" height="40" as="geometry" />
        </mxCell>
        <mxCell id="PDLHa-FzQipxZmoy9RNo-34" value="" style="ellipse;html=1;shape=endState;fillColor=#000000;strokeColor=#ff0000;" vertex="1" parent="1">
          <mxGeometry x="505" y="265" width="30" height="30" as="geometry" />
        </mxCell>
        <mxCell id="PDLHa-FzQipxZmoy9RNo-38" value="" style="endArrow=none;dashed=1;html=1;dashPattern=1 3;strokeWidth=2;rounded=0;" edge="1" parent="1">
          <mxGeometry width="50" height="50" relative="1" as="geometry">
            <mxPoint x="420" y="139.70999999999998" as="sourcePoint" />
            <mxPoint x="460" y="140" as="targetPoint" />
            <Array as="points">
              <mxPoint x="450" y="139.70999999999998" />
            </Array>
          </mxGeometry>
        </mxCell>
      </root>
    </mxGraphModel>
  </diagram>
</mxfile>
